<svg width="188" height="52" viewBox="0 0 188 52" fill="none" xmlns="http://www.w3.org/2000/svg" id="svg-576977278_1346">
<path d="M160 48.3829C162.604 48.6354 165.207 48.9066 167.804 49.1871L173.538 35.0293L178.988 50.493C181.784 50.8434 184.579 51.2111 187.366 51.5951L177.811 24.4783L187.369 0.875405H179.274L179.19 0.99135L174.027 13.7422L169.494 0.877275H161.501L169.752 24.2938L160 48.3829H160ZM153.955 47.8282V0.875405H145.965V47.1693C148.63 47.375 151.296 47.5956 153.955 47.8275V47.8282ZM93.9379 45.2026C96.0947 45.2026 98.2491 45.2188 100.4 45.2362V27.9866H109.998V20.6409H100.4V8.22981H111.454V0.875405H92.3795V45.2088C92.8975 45.2088 93.418 45.2007 93.9379 45.2026ZM69.1319 45.6514C71.7936 45.5566 74.4579 45.4768 77.1259 45.412V8.23106H84.5937V0.877275H61.664V8.23106H69.1331V45.6514H69.1319ZM8.02762 50.6021V22.6288L17.4877 49.4726C20.397 49.1459 23.3105 48.8386 26.2322 48.5481V0.876029H18.5661V29.8517L8.358 0.876029H0.363403V51.6076H0.411402C2.94412 51.2573 5.48556 50.9244 8.02762 50.6021ZM53.9599 8.22919V0.876029H34.8832V47.7534C41.2302 47.2055 47.5845 46.746 53.9443 46.3751V39.0151C50.2565 39.2295 46.5762 39.4764 42.9046 39.7513V27.9897H52.5025V20.6397H42.9046V8.22919H53.9599ZM127.288 38.6635V0.873535H119.264V45.6782C125.647 45.9126 132.005 46.2392 138.342 46.6506V39.2862C134.665 39.0487 130.98 38.8424 127.288 38.6629" fill="#C4C4C4"/>
</svg>