<svg width="159" height="37" viewBox="0 0 159 37" fill="none" xmlns="http://www.w3.org/2000/svg" id="svg-2064169200_2618">
<path fill-rule="evenodd" clip-rule="evenodd" d="M52.1393 0.673828C56.6799 0.673828 61.2196 2.45028 64.6742 5.90459C71.5827 12.8626 71.5827 24.1137 64.6243 31.0224C57.7158 37.931 46.4648 37.931 39.5564 31.0224C32.6479 24.0644 32.6479 12.8626 39.5564 5.90459C43.0101 2.40098 47.5507 0.673828 52.0903 0.673828H52.1393ZM44.5899 25.9889C48.7346 30.1341 55.4951 30.1341 59.6407 25.9889C63.8353 21.8437 63.8353 15.0832 59.6407 10.9381C55.4951 6.79291 48.7346 6.79291 44.5899 10.9381C40.4443 15.0832 40.4443 21.8437 44.5899 25.9889Z" fill="#C4C4C4"/>
<path fill-rule="evenodd" clip-rule="evenodd" d="M89.3972 0.673828C93.9368 0.723127 98.4774 2.45028 101.931 5.90459C108.84 12.8626 108.84 24.1137 101.931 31.0224C95.0227 37.931 83.7716 37.931 76.8632 31.0224C69.9548 24.0644 69.9548 12.8626 76.8632 5.90459C80.3169 2.40098 84.8575 0.673828 89.3972 0.673828ZM81.8468 25.9889C85.9924 30.1341 92.7529 30.1341 96.8985 25.9889C101.092 21.8437 101.092 15.0832 96.8985 10.9381C92.7529 6.79291 85.9924 6.79291 81.8468 10.9381C77.7021 15.0832 77.7021 21.8437 81.8468 25.9889Z" fill="#C4C4C4"/>
<path d="M7.7758 36.1552L9.55235 36.2538H36.1508L36.0518 34.4773C35.8048 31.5658 33.732 29.4439 30.8212 29.2465L29.0444 29.1478H13.0559L34.3739 7.87924L34.275 6.1027C34.127 3.14185 31.9561 1.01993 29.0444 0.871936L27.2676 0.773244H0.6698L0.76849 2.5497C1.01527 5.46115 3.0878 7.63247 5.99935 7.78055L7.7758 7.87924H23.7639L2.44634 29.1971L2.54504 30.9737C2.69303 33.8359 4.81504 35.9578 7.7758 36.1552Z" fill="#C4C4C4"/>
<path d="M130.059 14.9344C130.01 13.6021 129.813 12.4177 129.22 11.3814C127.987 9.2595 125.716 7.82842 123.101 7.92711C120.486 7.92711 118.216 9.35819 116.982 11.4801C116.341 12.5164 116.143 13.7008 116.094 15.0331L115.995 16.8097V29.2451L115.897 31.0217C115.798 33.9825 113.626 36.055 110.665 36.2524L108.89 36.3511V0.821113C110.665 0.821113 113.725 1.70943 115.107 3.2392C117.377 1.70943 120.091 0.821113 123.051 0.821113C127.296 0.821113 131.145 2.64696 133.71 5.60781C136.326 2.69635 140.126 0.821113 144.37 0.821113C152.216 0.821113 158.581 7.18697 158.581 15.0331V36.3018L156.805 36.2031C153.894 36.055 151.772 33.8838 151.575 30.9723L151.476 29.1958V16.7603L151.377 14.9838C151.328 13.7008 151.13 12.4671 150.538 11.4308C149.304 9.30889 146.985 7.87781 144.37 7.87781C141.755 7.87781 139.484 9.2595 138.251 11.3814C137.609 12.4177 137.412 13.6021 137.362 14.9344L137.264 16.711V36.2524L135.487 36.1537C132.576 35.9563 130.454 33.8344 130.257 30.923L130.158 29.1464V16.711L130.059 14.9344Z" fill="#C4C4C4"/>
</svg>