<svg width="40" height="40" viewBox="0 0 40 40" fill="none" xmlns="http://www.w3.org/2000/svg" id="svg284301923_1840">
<g clip-path="url(#svg284301923_1840_clip0_614_517)">
<mask id="svg284301923_1840_mask0_614_517" style="mask-type:luminance" maskUnits="userSpaceOnUse" x="0" y="0" width="40" height="40">
<path d="M40 0H0V40H40V0Z" fill="white"/>
</mask>
<g mask="url(#svg284301923_1840_mask0_614_517)">
<path d="M38.5446 21.5695L38.7487 21.9643L38.5446 21.5695L28.1377 26.9504C28.1376 26.9504 28.1376 26.9504 28.1376 26.9505C27.6284 27.2136 27.2136 27.6284 26.9505 28.1376C26.9504 28.1376 26.9504 28.1376 26.9504 28.1377L21.5695 38.5446L21.9643 38.7487L21.5695 38.5446C20.9108 39.8185 19.0892 39.8185 18.4305 38.5446L18.0383 38.7473L18.4305 38.5446L13.0495 28.1376C13.0495 28.1376 13.0495 28.1376 13.0495 28.1376C12.7863 27.6284 12.3715 27.2136 11.8625 26.9504L1.45537 21.5695C0.181548 20.9108 0.181539 19.0891 1.45537 18.4305L11.8625 13.0495L11.8625 13.0495C12.3716 12.7863 12.7863 12.3716 13.0495 11.8625L13.0495 11.8625L18.4305 1.45537C19.0891 0.181539 20.9108 0.181548 21.5695 1.45537L26.9504 11.8625C27.2136 12.3715 27.6284 12.7863 28.1376 13.0495C28.1376 13.0495 28.1376 13.0495 28.1376 13.0495L38.5446 18.4305L38.7473 18.0383L38.5446 18.4305C39.8185 19.0892 39.8185 20.9108 38.5446 21.5695Z" fill="url(#svg284301923_1840_paint0_linear_614_517)" stroke="url(#svg284301923_1840_paint1_linear_614_517)"/>
</g>
</g>
<defs>
<linearGradient id="svg284301923_1840_paint0_linear_614_517" x1="23.5233" y1="-12.6923" x2="23.5233" y2="41.9231" gradientUnits="userSpaceOnUse">
<stop stop-color="#FF9368"/>
<stop offset="1" stop-color="#F95D20"/>
</linearGradient>
<linearGradient id="svg284301923_1840_paint1_linear_614_517" x1="20" y1="0" x2="20" y2="40" gradientUnits="userSpaceOnUse">
<stop stop-color="#FFB68C"/>
<stop offset="1" stop-color="white" stop-opacity="0"/>
</linearGradient>
<clipPath id="svg284301923_1840_clip0_614_517">
<rect width="40" height="40" fill="white"/>
</clipPath>
</defs>
</svg>